<svg xmlns="http://www.w3.org/2000/svg" viewBox="4.241 1.819 13.839 10.409">
  <path d="M17.3146362,2.2000732c-0.3739014-0.2479248-0.8407593-0.3808594-1.3046265-0.3529663V1.8469849 c-0.1838379,0.0111694-0.3652954,0.055481-0.541748,0.1206055c-0.0444336,0.0163574-0.090271,0.0264282-0.133667,0.0465088 c-0.0506592,0.0244141-0.0955811,0.0630493-0.1447144,0.0919189c-0.5141602,0.3017578-0.940918,0.8309937-1.0878296,1.4679565 l0.5550537,1.5672607l0.5155029,1.4568481l0.0002441-0.0006714l0.0001831,0.0005493L16,4.2749634V4.2740479l0.0336304-0.0939331 V9.901062l-2.257019-6.2809448c-0.3699951-0.9070435-0.9290161-1.2790527-1.1400146-1.4200439 c-0.3689575-0.2179565-0.8280029-0.3399658-1.2929688-0.3569946c-0.0119019,0-0.0247192,0-0.0355835,0v-0.000061 l-0.000061-0.000061c-0.0350342,0-0.0689697,0-0.1029663,0c-0.0239868,0-0.0479736,0-0.0709839,0 c-0.0126953,0.0004272-0.0244751,0.0056152-0.0371094,0.0062256c-0.2435303,0.0114746-0.4869995,0.0466309-0.7163086,0.1188965 C9.7536011,2.2000732,9.2186279,2.4570923,8.6596069,3.4580688L9.178833,4.8179321l0.6171875,1.618042l0.0003052-0.0007324 l0.0003052,0.0008545l0.677002-1.7919922c0.0437622-0.1268311,0.1129761-0.2197266,0.19104-0.2960815 c0.1306152-0.1274414,0.2943726-0.1941528,0.4633789-0.1860352l0.000061-0.0008545 c0.0001831,0,0.0003052-0.000061,0.0004883-0.000061c0.2700195,0.0130005,0.5419922,0.1940308,0.6710205,0.5300293 l2.1400146,5.6989746c0,0,0.3729858,0.9060059,0.5579834,1.0930176c0.4429932,0.5120239,1.0700073,0.7210083,1.5820313,0.6970215 c0.3019409,0,0.4199829-0.0230103,0.6969604-0.1160278c0.5820313-0.2559814,1.2330322-0.8140259,1.3030396-1.8380127V4.0170898 C18.0585938,3.1320801,17.8936157,2.6201172,17.3146362,2.2000732z" fill="#000000"/>
  <path d="M12.5210571,7.5969849l-0.0004883,0.0013428l-0.0006714-0.001709L11.8679199,9.390564 c-0.0915527,0.242981-0.2583008,0.3847046-0.444519,0.4440308c-0.0842896,0.0266724-0.1712036,0.041687-0.2593994,0.0323486 v0.0006714h-0.000061c-0.0001831,0-0.0003052-0.0001831-0.0004883-0.0001831V9.8670044 c-0.257019-0.0270386-0.5100098-0.2039795-0.644043-0.5239868L8.3793945,3.6669922c0,0-0.3709717-0.9089966-0.5579834-1.0930176 c-0.0263672-0.0335693-0.0604248-0.0540771-0.088501-0.0849609C7.3141479,2.027771,6.7180786,1.8526001,6.2399292,1.8526001 c-0.302002,0-0.4199829,0.0230103-0.6740112,0.1159668c-0.5830078,0.2560425-1.257019,0.8150024-1.3250122,1.8610229v6.1879883 c0.005249,0.2267456,0.0193481,0.4274292,0.0466919,0.607666c0.0759277,0.5029907,0.267395,0.8453369,0.644104,1.1566772 c0.0280151,0.0231323,0.0449829,0.0488281,0.0751953,0.0716553c0.000061,0.000061,0.0001831,0.000061,0.0002441,0.0001221 c0.0001221,0.0001221,0.0001831,0.0001831,0.0003052,0.0003052c0.0296631,0.0178223,0.062561,0.0302734,0.0930176,0.046875 c0.3917236,0.2138672,0.84552,0.3269043,1.293457,0.2786865c0.1533203-0.0161133,0.3048706-0.0566406,0.4539185-0.1121216 c0.0453491-0.0167236,0.0915527-0.0286865,0.1361694-0.0494995c0.1367798-0.0657959,0.2686768-0.151123,0.3939209-0.2478638 c0.366272-0.2823486,0.6536255-0.6869507,0.7869263-1.1420898c0.0145874-0.0496216,0.0406494-0.0952759,0.0511475-0.1459961 l-0.0001221-0.0003052c0-0.000061,0.000061-0.000061,0.000061-0.0001221l-0.0904541-0.2561035L7.1490479,7.4579468 L7.1485596,7.4593506l-0.0006104-0.00177L6.4180298,9.5698242L6.3650513,9.7229614v0.0002441L6.3649292,9.7235718 L6.3114014,9.8762207V4.1329956l0.7402344,2.0896606l1.4917603,4.2133179 c0.0930176,0.2267456,0.1975098,0.4187622,0.3053589,0.5812378c0.2449341,0.369812,0.4968262,0.5771484,0.6778564,0.7056885 c0.0579224,0.0411987,0.1176147,0.0830078,0.1558228,0.1080933c0.0702515,0.0441895,0.1480103,0.0779419,0.2241211,0.1139526 c0.3856812,0.1824951,0.8341675,0.265686,1.2833862,0.2456665h0.000061v0.0003662 c0.0983276-0.0046387,0.1917114-0.0355835,0.2891235-0.0489502c0.1552734-0.0210571,0.3133545-0.0313721,0.4608154-0.0774536 c0.6269531-0.2340088,1.1619873-0.4649658,1.7199707-1.46698l-0.5792236-1.5247803L12.5210571,7.5969849z" fill="#000000"/>
</svg>
