<?xml version="1.0" encoding="utf-8"?>
<!-- Generator: Adobe Illustrator 19.2.1, SVG Export Plug-In . SVG Version: 6.00 Build 0)  -->
<svg version="1.1" id="Layer_1" xmlns="http://www.w3.org/2000/svg" xmlns:xlink="http://www.w3.org/1999/xlink" x="0px" y="0px"
	 viewBox="0 0 22.2960205 13.973999" width="399" height="250"
 style="enable-background:new 0 0 22.2960205 13.973999;" xml:space="preserve">
<style type="text/css">
	.st0{fill:url(#SVGID_1_);}
	.st1{fill:#FFFFFF;}
	.st2{clip-path:url(#SVGID_3_);fill:url(#SVGID_4_);}
	.st3{clip-path:url(#SVGID_6_);fill:url(#SVGID_7_);}
	.st4{clip-path:url(#SVGID_9_);fill:url(#SVGID_10_);}
	.st5{clip-path:url(#SVGID_12_);fill:url(#SVGID_13_);}
</style>
<linearGradient id="SVGID_1_" gradientUnits="userSpaceOnUse" x1="-461.8353271" y1="194.7266693" x2="-460.8353271" y2="194.7266693" gradientTransform="matrix(15.6372185 -8.1740026 8.1740026 15.6372185 5634.1171875 -6809.2998047)">
	<stop  offset="0" style="stop-color:#0075BB"/>
	<stop  offset="0.987732" style="stop-color:#00CAD9"/>
	<stop  offset="1" style="stop-color:#00CAD9"/>
</linearGradient>
<polygon class="st0" points="0.000061,-0.0000293 0,0.0000317 0,13.9739084 0.000061,13.9739695 22.2960205,13.9739695 
	22.2960205,13.9739695 22.2960205,-0.0000293 22.2960205,-0.0000293 "/>
<g id="Layer_2_copy">
	<g>
		<path class="st1" d="M17.3146362,2.2000732c-0.3739014-0.2479248-0.8407593-0.3808594-1.3046265-0.3529663V1.8469849
			c-0.1838379,0.0111694-0.3652954,0.055481-0.541748,0.1206055c-0.0444336,0.0163574-0.090271,0.0264282-0.133667,0.0465088
			c-0.0506592,0.0244141-0.0955811,0.0630493-0.1447144,0.0919189c-0.5141602,0.3017578-0.940918,0.8309937-1.0878296,1.4679565
			l0.5550537,1.5672607l0.5155029,1.4568481l0.0002441-0.0006714l0.0001831,0.0005493L16,4.2749634V4.2740479l0.0336304-0.0939331
			V9.901062l-2.257019-6.2809448c-0.3699951-0.9070435-0.9290161-1.2790527-1.1400146-1.4200439
			c-0.3689575-0.2179565-0.8280029-0.3399658-1.2929688-0.3569946c-0.0119019,0-0.0247192,0-0.0355835,0v-0.000061
			l-0.000061-0.000061c-0.0350342,0-0.0689697,0-0.1029663,0c-0.0239868,0-0.0479736,0-0.0709839,0
			c-0.0126953,0.0004272-0.0244751,0.0056152-0.0371094,0.0062256c-0.2435303,0.0114746-0.4869995,0.0466309-0.7163086,0.1188965
			C9.7536011,2.2000732,9.2186279,2.4570923,8.6596069,3.4580688L9.178833,4.8179321l0.6171875,1.618042l0.0003052-0.0007324
			l0.0003052,0.0008545l0.677002-1.7919922c0.0437622-0.1268311,0.1129761-0.2197266,0.19104-0.2960815
			c0.1306152-0.1274414,0.2943726-0.1941528,0.4633789-0.1860352l0.000061-0.0008545
			c0.0001831,0,0.0003052-0.000061,0.0004883-0.000061c0.2700195,0.0130005,0.5419922,0.1940308,0.6710205,0.5300293
			l2.1400146,5.6989746c0,0,0.3729858,0.9060059,0.5579834,1.0930176c0.4429932,0.5120239,1.0700073,0.7210083,1.5820313,0.6970215
			c0.3019409,0,0.4199829-0.0230103,0.6969604-0.1160278c0.5820313-0.2559814,1.2330322-0.8140259,1.3030396-1.8380127V4.0170898
			C18.0585938,3.1320801,17.8936157,2.6201172,17.3146362,2.2000732z"/>
		<path class="st1" d="M12.5210571,7.5969849l-0.0004883,0.0013428l-0.0006714-0.001709L11.8679199,9.390564
			c-0.0915527,0.242981-0.2583008,0.3847046-0.444519,0.4440308c-0.0842896,0.0266724-0.1712036,0.041687-0.2593994,0.0323486
			v0.0006714h-0.000061c-0.0001831,0-0.0003052-0.0001831-0.0004883-0.0001831V9.8670044
			c-0.257019-0.0270386-0.5100098-0.2039795-0.644043-0.5239868L8.3793945,3.6669922c0,0-0.3709717-0.9089966-0.5579834-1.0930176
			c-0.0263672-0.0335693-0.0604248-0.0540771-0.088501-0.0849609C7.3141479,2.027771,6.7180786,1.8526001,6.2399292,1.8526001
			c-0.302002,0-0.4199829,0.0230103-0.6740112,0.1159668c-0.5830078,0.2560425-1.257019,0.8150024-1.3250122,1.8610229v6.1879883
			c0.005249,0.2267456,0.0193481,0.4274292,0.0466919,0.607666c0.0759277,0.5029907,0.267395,0.8453369,0.644104,1.1566772
			c0.0280151,0.0231323,0.0449829,0.0488281,0.0751953,0.0716553c0.000061,0.000061,0.0001831,0.000061,0.0002441,0.0001221
			c0.0001221,0.0001221,0.0001831,0.0001831,0.0003052,0.0003052c0.0296631,0.0178223,0.062561,0.0302734,0.0930176,0.046875
			c0.3917236,0.2138672,0.84552,0.3269043,1.293457,0.2786865c0.1533203-0.0161133,0.3048706-0.0566406,0.4539185-0.1121216
			c0.0453491-0.0167236,0.0915527-0.0286865,0.1361694-0.0494995c0.1367798-0.0657959,0.2686768-0.151123,0.3939209-0.2478638
			c0.366272-0.2823486,0.6536255-0.6869507,0.7869263-1.1420898c0.0145874-0.0496216,0.0406494-0.0952759,0.0511475-0.1459961
			l-0.0001221-0.0003052c0-0.000061,0.000061-0.000061,0.000061-0.0001221l-0.0904541-0.2561035L7.1490479,7.4579468
			L7.1485596,7.4593506l-0.0006104-0.00177L6.4180298,9.5698242L6.3650513,9.7229614v0.0002441L6.3649292,9.7235718
			L6.3114014,9.8762207V4.1329956l0.7402344,2.0896606l1.4917603,4.2133179
			c0.0930176,0.2267456,0.1975098,0.4187622,0.3053589,0.5812378c0.2449341,0.369812,0.4968262,0.5771484,0.6778564,0.7056885
			c0.0579224,0.0411987,0.1176147,0.0830078,0.1558228,0.1080933c0.0702515,0.0441895,0.1480103,0.0779419,0.2241211,0.1139526
			c0.3856812,0.1824951,0.8341675,0.265686,1.2833862,0.2456665h0.000061v0.0003662
			c0.0983276-0.0046387,0.1917114-0.0355835,0.2891235-0.0489502c0.1552734-0.0210571,0.3133545-0.0313721,0.4608154-0.0774536
			c0.6269531-0.2340088,1.1619873-0.4649658,1.7199707-1.46698l-0.5792236-1.5247803L12.5210571,7.5969849z"/>
	</g>
</g>
<g id="Layer_2">
	<g>
		<g>
			<defs>
				<path id="SVGID_2_" d="M11.1340256,1.8429577c-0.2570038,0.0090027-0.512001,0.0500031-0.753006,0.1260071
					c-0.6269989,0.2310028-1.1619949,0.4880066-1.720993,1.4889984l1.135994,2.9779971l0.6780014-1.7929993
					c0.1159973-0.3369904,0.3840027-0.493988,0.6539993-0.4810028l0.1800003-2.3190005c-0.034996,0-0.0690002,0-0.1029968,0
					C11.1810226,1.8429577,11.1570206,1.8429577,11.1340256,1.8429577"/>
			</defs>
			<clipPath id="SVGID_3_">
				<use xlink:href="#SVGID_2_"  style="overflow:visible;"/>
			</clipPath>
			
				<linearGradient id="SVGID_4_" gradientUnits="userSpaceOnUse" x1="-571.0634766" y1="-0.4265988" x2="-570.0634766" y2="-0.4265988" gradientTransform="matrix(-2.3247507 1.0897248 -1.0897248 -2.3247507 -1316.6472168 624.7869873)">
				<stop  offset="0" style="stop-color:#FFFFFF"/>
				<stop  offset="0.331288" style="stop-color:#FFFFFF"/>
				<stop  offset="0.613497" style="stop-color:#EAEAEA"/>
				<stop  offset="1" style="stop-color:#C6C6C5"/>
			</linearGradient>
			<polygon class="st2" points="13.073143,5.6085677 9.1370392,7.4536147 6.8948975,2.6703656 10.8310013,0.8253186 			"/>
		</g>
	</g>
	<g>
		<g>
			<defs>
				<path id="SVGID_5_" d="M15.335022,2.013963c-0.5810013,0.279007-1.0719986,0.8619995-1.2330017,1.5599976l1.0709991,3.0240023
					l0.8270035-2.322998l0.0100021-2.4270022V1.8469708C15.7800217,1.8609631,15.5510254,1.9139721,15.335022,2.013963"/>
			</defs>
			<clipPath id="SVGID_6_">
				<use xlink:href="#SVGID_5_"  style="overflow:visible;"/>
			</clipPath>
			
				<linearGradient id="SVGID_7_" gradientUnits="userSpaceOnUse" x1="-587.7645264" y1="-2.3818932" x2="-586.7645264" y2="-2.3818932" gradientTransform="matrix(-2.2705102 0.8869202 -0.8869202 -2.2705102 -1319.9296875 519.4692383)">
				<stop  offset="0" style="stop-color:#FFFFFF"/>
				<stop  offset="0.331288" style="stop-color:#FFFFFF"/>
				<stop  offset="0.613497" style="stop-color:#EAEAEA"/>
				<stop  offset="1" style="stop-color:#C6C6C5"/>
			</linearGradient>
			<polygon class="st3" points="17.6201782,5.9689803 14.3546143,7.2445998 12.4918594,2.4759533 15.7574234,1.2003338 			"/>
		</g>
	</g>
	<g>
		<g>
			<defs>
				<path id="SVGID_8_" d="M11.8680267,9.3909616c-0.1330032,0.3530045-0.4210052,0.5060043-0.7040024,0.4760056l0.026001,2.3239975
					c0.2549973-0.012001,0.5099945-0.052002,0.75-0.1269989c0.6269989-0.2330017,1.1609955-0.465004,1.7189941-1.4660034
					L12.5210266,7.596971L11.8680267,9.3909616z"/>
			</defs>
			<clipPath id="SVGID_9_">
				<use xlink:href="#SVGID_8_"  style="overflow:visible;"/>
			</clipPath>
			
				<linearGradient id="SVGID_10_" gradientUnits="userSpaceOnUse" x1="-358.8597717" y1="357.5221863" x2="-357.8597717" y2="357.5221863" gradientTransform="matrix(2.0891242 -0.887353 0.887353 2.0891242 443.6196899 -1054.9202881)">
				<stop  offset="0" style="stop-color:#FFFFFF"/>
				<stop  offset="0.331288" style="stop-color:#FFFFFF"/>
				<stop  offset="0.613497" style="stop-color:#EAEAEA"/>
				<stop  offset="1" style="stop-color:#C6C6C5"/>
			</linearGradient>
			<polygon class="st4" points="9.5109558,8.2991343 13.2776871,6.6992202 15.3120728,11.4888391 11.5453415,13.0887537 			"/>
		</g>
	</g>
	<g>
		<g>
			<defs>
				<path id="SVGID_11_" d="M6.3650208,9.7229624l0.0289993,2.4560013c0.2000046-0.0209961,0.3990021-0.0719986,0.590004-0.1609955
					c0.5800018-0.2789993,1.0919952-0.8610001,1.2320023-1.5360031L7.149025,7.4579635L6.3650208,9.7229624z"/>
			</defs>
			<clipPath id="SVGID_12_">
				<use xlink:href="#SVGID_11_"  style="overflow:visible;"/>
			</clipPath>
			
				<linearGradient id="SVGID_13_" gradientUnits="userSpaceOnUse" x1="-342.1260681" y1="366.9611511" x2="-341.1260681" y2="366.9611511" gradientTransform="matrix(1.970715 -0.7475143 0.7475143 1.970715 405.8594971 -968.5874634)">
				<stop  offset="0" style="stop-color:#FFFFFF"/>
				<stop  offset="0.331288" style="stop-color:#FFFFFF"/>
				<stop  offset="0.613497" style="stop-color:#EAEAEA"/>
				<stop  offset="1" style="stop-color:#C6C6C5"/>
			</linearGradient>
			<polygon class="st5" points="4.7995224,8.0517664 7.9832001,6.8441634 9.7815094,11.5851526 6.5978394,12.7927561 			"/>
		</g>
	</g>
</g>
</svg>
