<svg xmlns="http://www.w3.org/2000/svg" viewBox="0 0 32 32">
<style>.fur{fill:#1a1a1a}.lid{display:none}@media(prefers-color-scheme:dark){.fur{fill:#fffdf8}}</style>
<circle class="fur eye" cx="8" cy="13" r="2.6"/>
<circle class="fur eye" cx="24" cy="13" r="2.6"/>
<rect class="fur lid" x="5" y="11.9" width="6" height="2.2" rx="1.1"/>
<rect class="fur lid" x="21" y="11.9" width="6" height="2.2" rx="1.1"/>
<path class="fur" transform="translate(10.048 24) scale(0.008301 -0.008301)" d="M717 125Q679 100 636.5 77.5Q594 55 549.5 37.5Q505 20 460.5 10.0Q416 0 374 0Q307 0 250.5 12.0Q194 24 153.0 48.5Q112 73 89.0 110.5Q66 148 66 200Q66 221 74.0 240.5Q82 260 96.5 275.5Q111 291 131.5 300.5Q152 310 177 310Q183 310 194.0 308.5Q205 307 216.5 305.0Q228 303 238.5 299.5Q249 296 256 293L313 94Q324 91 345.5 88.5Q367 86 379 86Q397 86 418.0 88.0Q439 90 464.5 97.0Q490 104 520.0 118.0Q550 132 587 155Q530 194 474.0 246.5Q418 299 373.5 360.0Q329 421 301.0 487.5Q273 554 273 620Q273 683 307.0 751.5Q341 820 401.0 876.5Q461 933 542.0 969.5Q623 1006 717 1006Q811 1006 892.0 969.5Q973 933 1033.0 876.5Q1093 820 1127.0 751.5Q1161 683 1161 620Q1161 554 1133.0 487.5Q1105 421 1060.5 360.0Q1016 299 960.0 246.5Q904 194 847 155Q884 132 914.0 118.0Q944 104 969.5 97.0Q995 90 1016.0 88.0Q1037 86 1055 86Q1067 86 1088.5 88.5Q1110 91 1121 94L1178 293Q1185 296 1195.5 299.5Q1206 303 1217.5 305.0Q1229 307 1240.0 308.5Q1251 310 1257 310Q1282 310 1302.5 300.5Q1323 291 1337.5 275.5Q1352 260 1360.0 240.5Q1368 221 1368 200Q1368 148 1345.0 110.5Q1322 73 1281.0 48.5Q1240 24 1183.5 12.0Q1127 0 1060 0Q1018 0 973.5 10.0Q929 20 884.5 37.5Q840 55 797.5 77.5Q755 100 717 125Z"/>
</svg>
